<svg width="149" height="149" viewBox="0 0 149 149" fill="none" xmlns="http://www.w3.org/2000/svg">
<path d="M74.5 148.5C115.369 148.5 148.5 115.369 148.5 74.5C148.5 33.6309 115.369 0.5 74.5 0.5C33.6309 0.5 0.5 33.6309 0.5 74.5C0.5 115.369 33.6309 148.5 74.5 148.5Z" fill="white" stroke="#E3EBF3"/>
<path d="M74.5 138.5C109.846 138.5 138.5 109.846 138.5 74.5C138.5 39.1538 109.846 10.5 74.5 10.5C39.1538 10.5 10.5 39.1538 10.5 74.5C10.5 109.846 39.1538 138.5 74.5 138.5Z" fill="url(#paint0_linear_5_33)"/>
<path d="M74.5 79.5C83.8888 79.5 91.5 71.8888 91.5 62.5C91.5 53.1112 83.8888 45.5 74.5 45.5C65.1112 45.5 57.5 53.1112 57.5 62.5C57.5 71.8888 65.1112 79.5 74.5 79.5Z" fill="#E8F4FD"/>
<path d="M47.5 106.5C52.5 92.5 64.5 86.5 74.5 86.5C84.5 86.5 96.5 92.5 101.5 106.5H47.5Z" fill="#E8F4FD"/>
<path d="M116.5 46.5C122.023 46.5 126.5 42.0228 126.5 36.5C126.5 30.9772 122.023 26.5 116.5 26.5C110.977 26.5 106.5 30.9772 106.5 36.5C106.5 42.0228 110.977 46.5 116.5 46.5Z" fill="#06D6A0" stroke="white" stroke-width="2"/>
<path d="M113 36.5L116 39.5L120.5 34.5" stroke="white" stroke-width="1.6" stroke-linecap="round" stroke-linejoin="round"/>
<defs>
<linearGradient id="paint0_linear_5_33" x1="10.5" y1="10.5" x2="138.5" y2="138.5" gradientUnits="userSpaceOnUse">
<stop stop-color="#0A2540"/>
<stop offset="1" stop-color="#14365E"/>
</linearGradient>
</defs>
</svg>
