<svg width="24" height="24" viewBox="0 0 24 24" fill="none" xmlns="http://www.w3.org/2000/svg">
<path d="M12 24C18.6274 24 24 18.6274 24 12C24 5.37258 18.6274 0 12 0C5.37258 0 0 5.37258 0 12C0 18.6274 5.37258 24 12 24Z" fill="#0A2540"/>
<path d="M15.3125 10H9.6875C8.75552 10 8 10.6716 8 11.5V15.5C8 16.3284 8.75552 17 9.6875 17H15.3125C16.2445 17 17 16.3284 17 15.5V11.5C17 10.6716 16.2445 10 15.3125 10Z" fill="#00B4D8"/>
<path d="M10 11V9C10 7 10.8333 6 12.5 6C14.1667 6 15 7 15 9V11" stroke="#00B4D8" stroke-width="1.2"/>
</svg>
